<?xml version="1.0" encoding="UTF-8"?>
<svg width="128px" height="128px" viewBox="0 0 128 128" version="1.1"
    xmlns="http://www.w3.org/2000/svg" xmlns:xlink="http://www.w3.org/1999/xlink">
    <path
        d="M0.494258796,61.7888637 C2.90204012,60.2645598 9.35508947,67.1866257 18.1743926,73.4833362 C23.9060033,77.5758316 33.36939,80.6920234 41.7489901,80.1138953 C55.3936271,79.1726051 61.055211,76.5425294 72.5689167,70.5356972 C81.597486,65.8251748 90.7025961,59.1783304 98.4788259,54.4401229 C103.076166,51.6382374 108.61561,49.0928453 114.85125,47.1671088 C122.951558,44.6665013 128,46.7591621 128,47.5693556 C128,48.9601201 118.430759,53.5012755 111.154488,58.417807 C101.798584,64.7397597 97.4105104,67.8070956 95.2689937,69.2125168 C89.1473501,73.2309141 78.6685751,80.1326234 74.140448,82.3156676 C67.0604146,85.7290661 58.96825,89.0162535 48.9804767,90.2808069 C35.8927969,91.937836 21.8564985,88.7483603 12.5681788,81.683798 C1.4013499,73.1902008 -1.26048207,62.9003352 0.494258796,61.7888637"
        id="Path" fill="#003399" fill-rule="nonzero" mask="url(#mask-4)"></path>
    <path
        d="M18.8192904,69.1677322 C18.8192904,69.1677322 28.9316463,43.024129 30.40628,39.2044123 C35.0858604,27.0832649 37.0938377,20.640801 44.3774372,17.9333702 C48.1751687,16.5214349 54.9807948,17.8006451 57.4121898,17.9871117 C61.0039123,18.2631475 61.863776,17.2094887 62.6755981,15.1787121 C64.4034683,10.8606653 65.8952016,7.4057393 65.6590647,6.69895736 C65.5996234,6.52063335 64.4588383,6.21691254 64.3244846,5.67868344 C64.2463151,5.36437718 66.4627442,0.29720669 66.9936449,0.00895691394 C67.544088,-0.288249776 86.3088227,6.85611049 86.4659758,7.64187612 C86.6117292,8.37145747 84.8952588,13.0591805 84.1884769,13.4516562 C83.6364053,13.7586341 82.6902295,12.827115 81.9899616,13.2163336 C81.4957028,13.4907409 80.7913637,15.5394314 78.5358499,21.3027984 C77.829068,23.108838 78.3982392,25.1412432 80.3418895,26.7201028 C82.8538967,28.7614649 87.7541429,31.8556715 90.0772407,35.9066394 C93.139691,41.2457744 91.6479577,44.4572352 87.1719435,55.6134786 L86.8584515,56.4774137 C86.8584515,56.4774137 79.1823763,62.9239489 65.1851626,69.554508 C56.9887721,73.4369231 49.3468959,75.2616907 43.2838795,75.957073 C42.305133,76.0694415 39.4250781,73.7683289 37.0954662,73.541149 C34.7691114,73.3131548 28.4227307,74.2487452 27.8869444,74.06065 C23.4418723,72.4948186 18.8192904,69.1677322 18.8192904,69.1677322"
        id="Path" fill="#003399" fill-rule="nonzero" mask="url(#mask-6)"></path>
    <path
        d="M60.7132197,31.8239152 C60.7132197,31.8239152 50.4347538,26.361012 46.4130995,29.4031057 C42.4907854,32.3711012 27.8877587,74.0785638 27.8877587,74.0785638 C27.8877587,74.0785638 29.7043837,74.8032596 33.2399219,75.5955394 C35.5369632,76.1101548 37.5131841,76.2396229 39.870481,76.202981 C41.7481759,76.1736674 43.2838795,75.9758011 43.2838795,75.9758011 L60.7132197,31.8239152 Z"
        id="Path" fill="#FFCC00" fill-rule="nonzero" mask="url(#mask-8)"></path>
</svg>
