<?xml version="1.0" encoding="utf-8"?>
<!-- Generator: Adobe Illustrator 22.0.0, SVG Export Plug-In . SVG Version: 6.00 Build 0)  -->
<svg version="1.1" id="Ebene_1" xmlns="http://www.w3.org/2000/svg" xmlns:xlink="http://www.w3.org/1999/xlink" x="0px" y="0px"
	 viewBox="0 0 567.001 162.627" style="enable-background:new 0 0 567.001 162.627;" xml:space="preserve">
<style type="text/css">
	.st0{fill:#003399;}
	.st1{clip-path:url(#SVGID_2_);}
	.st2{clip-path:url(#SVGID_4_);fill:#003399;}
	.st3{clip-path:url(#SVGID_6_);fill:#003399;}
	.st4{clip-path:url(#SVGID_6_);fill:#FFCC00;}
</style>
<g>
	<path class="st0" d="M9.938,153.664v-22.291H1.403c-0.467,0-0.818-0.352-0.818-0.819c0-0.467,0.351-0.818,0.818-0.818h18.706
		c0.468,0,0.818,0.352,0.818,0.818c0,0.468-0.351,0.819-0.818,0.819h-8.535v22.291c0,0.468-0.351,0.818-0.818,0.818
		S9.938,154.132,9.938,153.664z"/>
	<path class="st0" d="M40.684,143.259v10.366c0,0.546-0.273,0.818-0.818,0.818s-0.818-0.272-0.818-0.818v-10.366
		c0-3.819-1.364-5.184-5.183-5.184h-1.091c-4.248,0-6.508,1.403-6.859,4.248c0,0.078-0.039,0.156-0.039,0.234v11.067
		c0,0.546-0.272,0.818-0.818,0.818c-0.545,0-0.818-0.272-0.818-0.818v-25.253c0-0.546,0.273-0.818,0.818-0.818
		c0.546,0,0.818,0.272,0.818,0.818v11.146c1.169-2.026,3.507-3.079,6.898-3.079h1.091C38.618,136.438,40.684,138.504,40.684,143.259
		z"/>
	<path class="st0" d="M48.592,146.064v1.598c0,3.78,1.364,5.145,5.183,5.145h3.196c3.507,0,4.91-0.857,5.144-3.195
		c0.039-0.546,0.312-0.818,0.857-0.818c0.506,0,0.818,0.312,0.779,0.857c-0.273,3.313-2.416,4.793-6.781,4.793h-3.196
		c-4.754,0-6.82-2.065-6.82-6.781v-4.364c0-4.794,2.065-6.859,6.82-6.82h3.196c4.754,0,6.82,2.065,6.82,6.82v1.948
		c0,0.507-0.273,0.818-0.818,0.818H48.592z M48.592,144.428h13.562v-1.13c0-3.819-1.364-5.184-5.183-5.184h-3.196
		c-3.819-0.039-5.183,1.325-5.183,5.184V144.428z"/>
	<path class="st0" d="M78.986,146.532v-8.847c0-5.572,2.377-7.95,7.872-7.911h4.715c5.534,0,7.911,2.378,7.911,7.911v8.847
		c0,5.534-2.377,7.911-7.911,7.911h-4.676C81.363,154.443,78.986,152.066,78.986,146.532z M91.573,152.807
		c4.599,0,6.274-1.676,6.274-6.274v-8.847c0-4.599-1.676-6.274-6.274-6.274h-4.715c-4.599-0.038-6.235,1.637-6.235,6.274v8.847
		c0,4.599,1.676,6.274,6.274,6.274H91.573z"/>
	<path class="st0" d="M122.942,143.298v4.325c0,4.755-2.065,6.82-6.82,6.82h-8.379v6.976c0,0.546-0.272,0.818-0.818,0.818
		c-0.545,0-0.818-0.272-0.818-0.818v-24.123c0-0.545,0.273-0.818,0.818-0.818c0.546,0,0.818,0.273,0.818,0.818v2.144
		c1.091-1.948,3.235-2.962,6.898-2.962h1.481C120.876,136.478,122.942,138.543,122.942,143.298z M121.305,143.298
		c0-3.819-1.364-5.184-5.183-5.184h-1.481c-4.248,0-6.508,1.403-6.859,4.248c0,0.078-0.039,0.156-0.039,0.233v10.211h8.379
		c3.819,0,5.183-1.364,5.183-5.184V143.298z"/>
	<path class="st0" d="M130.811,146.064v1.598c0,3.78,1.364,5.145,5.183,5.145h3.196c3.507,0,4.91-0.857,5.144-3.195
		c0.039-0.546,0.312-0.818,0.857-0.818c0.507,0,0.818,0.312,0.779,0.857c-0.272,3.313-2.416,4.793-6.781,4.793h-3.196
		c-4.754,0-6.82-2.065-6.82-6.781v-4.364c0-4.794,2.065-6.859,6.82-6.82h3.196c4.754,0,6.82,2.065,6.82,6.82v1.948
		c0,0.507-0.273,0.818-0.818,0.818H130.811z M130.811,144.428h13.562v-1.13c0-3.819-1.364-5.184-5.183-5.184h-3.196
		c-3.819-0.039-5.183,1.325-5.183,5.184V144.428z"/>
	<path class="st0" d="M169.078,143.298v10.327c0,0.546-0.273,0.818-0.818,0.818s-0.818-0.272-0.818-0.818v-10.327
		c0-3.819-1.364-5.184-5.183-5.184h-1.091c-4.248,0-6.508,1.403-6.859,4.248c0,0.078-0.039,0.156-0.039,0.233v11.029
		c0,0.546-0.272,0.818-0.818,0.818c-0.545,0-0.818-0.272-0.818-0.818v-16.329c0-0.545,0.273-0.818,0.818-0.818
		c0.546,0,0.818,0.273,0.818,0.818v2.261c1.169-2.026,3.507-3.079,6.898-3.079h1.091
		C167.013,136.478,169.078,138.543,169.078,143.298z"/>
	<path class="st0" d="M207.578,130.593v23.032c0,0.546-0.273,0.818-0.818,0.818s-0.818-0.272-0.818-0.818v-20.538l-8.808,13.563
		c-0.234,0.39-0.545,0.545-0.974,0.545s-0.74-0.155-0.974-0.545l-8.847-13.602v20.577c0,0.546-0.272,0.818-0.818,0.818
		c-0.545,0-0.818-0.272-0.818-0.818v-23.032c0-0.545,0.273-0.818,0.818-0.818c0.429,0,0.741,0.156,0.974,0.546l9.665,14.887
		l9.665-14.887c0.233-0.39,0.545-0.546,0.974-0.546C207.305,129.774,207.578,130.048,207.578,130.593z"/>
	<path class="st0" d="M230.178,143.298v10.327c0,0.546-0.273,0.818-0.818,0.818s-0.818-0.272-0.818-0.818v-2.299
		c-1.169,2.026-3.507,3.117-6.898,3.117h-2.182c-3.936,0-5.651-1.715-5.651-5.65c0-3.937,1.753-5.69,5.651-5.69h9.08
		c-0.039-3.663-1.442-4.988-5.183-4.988h-2.26c-3.546,0-4.988,0.741-5.3,2.689c-0.078,0.507-0.312,0.779-0.818,0.779
		c-0.545,0-0.857-0.312-0.818-0.857c0.195-2.962,2.494-4.248,6.937-4.248h2.26C228.112,136.478,230.178,138.543,230.178,143.298z
		 M228.541,148.286v-3.547h-9.08c-3.001,0-4.014,1.014-4.014,4.054c0,3,1.013,4.014,4.014,4.014h2.182
		c4.248,0,6.508-1.442,6.859-4.287C228.502,148.441,228.541,148.364,228.541,148.286z"/>
	<path class="st0" d="M246.972,137.296c0,0.546-0.272,0.818-0.818,0.818c-4.676,0-7.365,2.3-7.638,6.548
		c0,0.077,0,0.155-0.039,0.233v8.729c0,0.546-0.272,0.818-0.818,0.818c-0.545,0-0.818-0.272-0.818-0.818v-16.329
		c0-0.545,0.273-0.818,0.818-0.818c0.546,0,0.818,0.273,0.818,0.818v3.663c1.286-2.884,3.936-4.481,7.677-4.481
		C246.738,136.478,246.972,136.751,246.972,137.296z"/>
	<path class="st0" d="M250.126,131.606v-0.779c0-0.779,0.39-1.169,1.169-1.169h0.779c0.741,0,1.169,0.39,1.169,1.169v0.779
		c0,0.779-0.429,1.208-1.169,1.208h-0.779C250.516,132.814,250.126,132.386,250.126,131.606z M250.867,153.625v-16.329
		c0-0.545,0.273-0.818,0.818-0.818c0.546,0,0.818,0.273,0.818,0.818v16.329c0,0.546-0.272,0.818-0.818,0.818
		C251.14,154.443,250.867,154.171,250.867,153.625z"/>
	<path class="st0" d="M275.962,143.298v10.327c0,0.546-0.273,0.818-0.818,0.818s-0.818-0.272-0.818-0.818v-10.327
		c0-3.819-1.364-5.184-5.183-5.184h-1.091c-4.248,0-6.508,1.403-6.859,4.248c0,0.078-0.039,0.156-0.039,0.233v11.029
		c0,0.546-0.272,0.818-0.818,0.818c-0.545,0-0.818-0.272-0.818-0.818v-16.329c0-0.545,0.273-0.818,0.818-0.818
		c0.546,0,0.818,0.273,0.818,0.818v2.261c1.169-2.026,3.507-3.079,6.898-3.079h1.091
		C273.897,136.478,275.962,138.543,275.962,143.298z"/>
	<path class="st0" d="M283.871,146.064v1.598c0,3.78,1.364,5.145,5.183,5.145h3.196c3.507,0,4.91-0.857,5.144-3.195
		c0.039-0.546,0.312-0.818,0.857-0.818c0.507,0,0.818,0.312,0.779,0.857c-0.272,3.313-2.416,4.793-6.781,4.793h-3.196
		c-4.754,0-6.82-2.065-6.82-6.781v-4.364c0-4.794,2.065-6.859,6.82-6.82h3.196c4.754,0,6.82,2.065,6.82,6.82v1.948
		c0,0.507-0.273,0.818-0.818,0.818H283.871z M283.871,144.428h13.562v-1.13c0-3.819-1.364-5.184-5.183-5.184h-3.196
		c-3.819-0.039-5.183,1.325-5.183,5.184V144.428z"/>
	<path class="st0" d="M314.654,153.625v-23.032c0-0.545,0.273-0.818,0.818-0.818h9.392c6.352,0,9.08,2.729,9.08,9.081v6.508
		c0,6.353-2.728,9.08-9.08,9.08h-9.392C314.927,154.443,314.654,154.171,314.654,153.625z M324.865,152.807
		c5.417,0,7.443-2.026,7.443-7.443v-6.508c0-5.417-2.026-7.444-7.443-7.444h-8.574v21.396H324.865z"/>
	<path class="st0" d="M356.155,143.298v10.327c0,0.546-0.273,0.818-0.818,0.818s-0.818-0.272-0.818-0.818v-2.299
		c-1.169,2.026-3.507,3.117-6.898,3.117h-2.182c-3.936,0-5.651-1.715-5.651-5.65c0-3.937,1.753-5.69,5.651-5.69h9.08
		c-0.039-3.663-1.442-4.988-5.183-4.988h-2.26c-3.546,0-4.988,0.741-5.3,2.689c-0.078,0.507-0.312,0.779-0.818,0.779
		c-0.545,0-0.857-0.312-0.818-0.857c0.195-2.962,2.494-4.248,6.937-4.248h2.26C354.09,136.478,356.155,138.543,356.155,143.298z
		 M354.519,148.286v-3.547h-9.08c-3.001,0-4.014,1.014-4.014,4.054c0,3,1.013,4.014,4.014,4.014h2.182
		c4.248,0,6.508-1.442,6.859-4.287C354.479,148.441,354.519,148.364,354.519,148.286z"/>
	<path class="st0" d="M370.923,153.625c0,0.546-0.273,0.818-0.857,0.818c-4.676,0-6.703-2.026-6.703-6.664v-9.665h-2.455
		c-0.545,0-0.818-0.272-0.818-0.818c0-0.545,0.273-0.818,0.818-0.818h2.455v-4.638c0-0.545,0.273-0.818,0.819-0.818
		c0.545,0,0.818,0.273,0.818,0.818v4.638h5.027c0.546,0,0.818,0.273,0.818,0.818c0,0.546-0.272,0.818-0.818,0.818H365v9.665
		c0,3.741,1.286,5.027,5.066,5.027C370.728,152.807,370.923,153.118,370.923,153.625z"/>
	<path class="st0" d="M390.407,143.298v10.327c0,0.546-0.273,0.818-0.818,0.818s-0.818-0.272-0.818-0.818v-2.299
		c-1.169,2.026-3.507,3.117-6.898,3.117h-2.182c-3.936,0-5.651-1.715-5.651-5.65c0-3.937,1.753-5.69,5.651-5.69h9.08
		c-0.039-3.663-1.442-4.988-5.183-4.988h-2.26c-3.546,0-4.988,0.741-5.3,2.689c-0.078,0.507-0.312,0.779-0.818,0.779
		c-0.545,0-0.857-0.312-0.818-0.857c0.195-2.962,2.494-4.248,6.937-4.248h2.26C388.342,136.478,390.407,138.543,390.407,143.298z
		 M388.771,148.286v-3.547h-9.08c-3.001,0-4.014,1.014-4.014,4.054c0,3,1.013,4.014,4.014,4.014h2.182
		c4.248,0,6.508-1.442,6.859-4.287C388.731,148.441,388.771,148.364,388.771,148.286z"/>
	<path class="st0" d="M405.642,147.662c0-0.468,0.351-0.818,0.818-0.818s0.818,0.351,0.818,0.818c0,3.78,1.325,5.105,5.144,5.105
		h5.612c3.819,0,5.145-1.325,5.145-5.105s-1.325-5.104-5.145-5.104h-5.495c-4.482,0-6.43-1.949-6.43-6.392s1.948-6.392,6.391-6.392
		h5.729c4.442,0,6.391,1.949,6.391,6.353c0,0.468-0.351,0.818-0.818,0.818s-0.818-0.351-0.818-0.818
		c0-3.469-1.247-4.716-4.754-4.716H412.5c-3.507,0-4.754,1.247-4.754,4.755s1.247,4.755,4.793,4.755h5.495
		c4.716,0,6.781,2.065,6.781,6.741c0,4.677-2.065,6.742-6.781,6.742h-5.612C407.707,154.404,405.642,152.339,405.642,147.662z"/>
	<path class="st0" d="M439.543,153.625c0,0.546-0.272,0.818-0.857,0.818c-4.677,0-6.703-2.026-6.703-6.664v-9.665h-2.455
		c-0.546,0-0.818-0.272-0.818-0.818c0-0.545,0.272-0.818,0.818-0.818h2.455v-4.638c0-0.545,0.273-0.818,0.818-0.818
		c0.546,0,0.818,0.273,0.818,0.818v4.638h5.027c0.546,0,0.818,0.273,0.818,0.818c0,0.546-0.272,0.818-0.818,0.818h-5.027v9.665
		c0,3.741,1.286,5.027,5.066,5.027C439.349,152.807,439.543,153.118,439.543,153.625z"/>
	<path class="st0" d="M459.027,143.298v10.327c0,0.546-0.272,0.818-0.818,0.818s-0.818-0.272-0.818-0.818v-2.299
		c-1.169,2.026-3.508,3.117-6.897,3.117h-2.183c-3.937,0-5.651-1.715-5.651-5.65c0-3.937,1.754-5.69,5.651-5.69h9.08
		c-0.039-3.663-1.442-4.988-5.184-4.988h-2.26c-3.547,0-4.988,0.741-5.3,2.689c-0.078,0.507-0.313,0.779-0.818,0.779
		c-0.546,0-0.857-0.312-0.818-0.857c0.194-2.962,2.494-4.248,6.937-4.248h2.26C456.962,136.478,459.027,138.543,459.027,143.298z
		 M457.391,148.286v-3.547h-9.08c-3.001,0-4.014,1.014-4.014,4.054c0,3,1.013,4.014,4.014,4.014h2.183
		c4.247,0,6.508-1.442,6.858-4.287C457.352,148.441,457.391,148.364,457.391,148.286z"/>
	<path class="st0" d="M482.135,143.298v10.327c0,0.546-0.272,0.818-0.818,0.818s-0.818-0.272-0.818-0.818v-10.327
		c0-3.819-1.364-5.184-5.184-5.184h-1.091c-4.248,0-6.508,1.403-6.858,4.248c0,0.078-0.039,0.156-0.039,0.233v11.029
		c0,0.546-0.273,0.818-0.818,0.818c-0.546,0-0.818-0.272-0.818-0.818v-16.329c0-0.545,0.272-0.818,0.818-0.818
		c0.545,0,0.818,0.273,0.818,0.818v2.261c1.169-2.026,3.507-3.079,6.897-3.079h1.091
		C480.069,136.478,482.135,138.543,482.135,143.298z"/>
	<path class="st0" d="M505.241,128.372v25.253c0,0.546-0.272,0.818-0.818,0.818s-0.818-0.272-0.818-0.818v-2.144
		c-1.091,1.948-3.234,2.962-6.897,2.962h-1.481c-4.754,0-6.819-2.065-6.819-6.82v-4.325c0-4.755,2.065-6.82,6.819-6.82h8.379v-8.105
		c0-0.546,0.272-0.818,0.818-0.818S505.241,127.826,505.241,128.372z M503.604,148.559v-10.444h-8.379
		c-3.819,0-5.183,1.364-5.183,5.184v4.325c0,3.819,1.363,5.184,5.183,5.184h1.481C500.954,152.807,503.604,151.403,503.604,148.559z
		"/>
	<path class="st0" d="M527.49,143.298v10.327c0,0.546-0.272,0.818-0.818,0.818s-0.818-0.272-0.818-0.818v-2.299
		c-1.169,2.026-3.508,3.117-6.897,3.117h-2.183c-3.937,0-5.651-1.715-5.651-5.65c0-3.937,1.754-5.69,5.651-5.69h9.08
		c-0.039-3.663-1.442-4.988-5.184-4.988h-2.26c-3.547,0-4.988,0.741-5.3,2.689c-0.078,0.507-0.313,0.779-0.818,0.779
		c-0.546,0-0.857-0.312-0.818-0.857c0.194-2.962,2.494-4.248,6.937-4.248h2.26C525.425,136.478,527.49,138.543,527.49,143.298z
		 M525.854,148.286v-3.547h-9.08c-3.001,0-4.014,1.014-4.014,4.054c0,3,1.013,4.014,4.014,4.014h2.183
		c4.247,0,6.508-1.442,6.858-4.287C525.814,148.441,525.854,148.364,525.854,148.286z"/>
	<path class="st0" d="M544.284,137.296c0,0.546-0.272,0.818-0.818,0.818c-4.677,0-7.365,2.3-7.638,6.548
		c0,0.077,0,0.155-0.039,0.233v8.729c0,0.546-0.273,0.818-0.818,0.818c-0.546,0-0.818-0.272-0.818-0.818v-16.329
		c0-0.545,0.272-0.818,0.818-0.818c0.545,0,0.818,0.273,0.818,0.818v3.663c1.286-2.884,3.936-4.481,7.677-4.481
		C544.051,136.478,544.284,136.751,544.284,137.296z"/>
	<path class="st0" d="M563.847,128.372v25.253c0,0.546-0.272,0.818-0.818,0.818s-0.818-0.272-0.818-0.818v-2.144
		c-1.091,1.948-3.234,2.962-6.897,2.962h-1.481c-4.754,0-6.819-2.065-6.819-6.82v-4.325c0-4.755,2.065-6.82,6.819-6.82h8.379v-8.105
		c0-0.546,0.272-0.818,0.818-0.818S563.847,127.826,563.847,128.372z M562.21,148.559v-10.444h-8.379
		c-3.819,0-5.183,1.364-5.183,5.184v4.325c0,3.819,1.363,5.184,5.183,5.184h1.481C559.56,152.807,562.21,151.403,562.21,148.559z"/>
</g>
<g>
	<g>
		<defs>
			<rect id="SVGID_1_" width="567.001" height="111.458"/>
		</defs>
		<clipPath id="SVGID_2_">
			<use xlink:href="#SVGID_1_"  style="overflow:visible;"/>
		</clipPath>
		<g class="st1">
			<defs>
				<rect id="SVGID_3_" y="0" width="567.001" height="111.458"/>
			</defs>
			<clipPath id="SVGID_4_">
				<use xlink:href="#SVGID_3_"  style="overflow:visible;"/>
			</clipPath>
			<path class="st2" d="M207.906,20.226c4.185,0,8.027,0.605,11.526,1.814c3.498,1.211,6.524,2.764,9.075,4.661
				c2.55,1.897,4.545,3.989,5.984,6.277c1.437,2.29,2.19,4.481,2.256,6.573c0,0.589-0.213,1.096-0.638,1.521
				c-0.426,0.426-0.899,0.637-1.422,0.637h-12.851c-0.917,0-1.652-0.13-2.207-0.392c-0.556-0.26-1.128-0.653-1.717-1.177
				c-0.196-0.196-0.507-0.523-0.932-0.981c-0.426-0.457-1.03-0.932-1.815-1.423c-0.784-0.49-1.765-0.915-2.943-1.275
				c-1.177-0.359-2.616-0.539-4.316-0.539c-1.243,0-2.437,0.082-3.581,0.245c-1.145,0.164-2.158,0.426-3.041,0.785
				c-0.882,0.36-1.603,0.867-2.158,1.52c-0.556,0.655-0.834,1.472-0.834,2.453c0,0.981,0.31,1.799,0.932,2.452
				c0.621,0.655,1.668,1.26,3.14,1.815c1.471,0.556,3.416,1.096,5.836,1.618c2.419,0.525,5.428,1.145,9.025,1.864
				c3.597,0.721,6.736,1.636,9.418,2.747c2.68,1.113,4.92,2.502,6.72,4.169c1.797,1.669,3.139,3.63,4.022,5.886
				c0.882,2.256,1.324,4.922,1.324,7.996c0,3.335-0.753,6.311-2.256,8.926c-1.505,2.617-3.614,4.856-6.328,6.72
				s-5.919,3.286-9.614,4.268c-3.695,0.98-7.734,1.471-12.114,1.471c-4.449,0-8.503-0.589-12.165-1.766
				c-3.663-1.177-6.818-2.73-9.466-4.659c-2.649-1.929-4.726-4.104-6.23-6.524c-1.505-2.419-2.29-4.871-2.354-7.357
				c0-0.589,0.212-1.095,0.638-1.521c0.424-0.425,0.898-0.637,1.422-0.637h12.851c0.915,0,1.634,0.115,2.158,0.342
				c0.523,0.231,1.046,0.574,1.57,1.031c0.26,0.262,0.653,0.686,1.177,1.275c0.523,0.589,1.226,1.194,2.109,1.814
				c0.883,0.623,1.994,1.163,3.336,1.62c1.339,0.458,2.991,0.686,4.954,0.686c3.465,0,6.359-0.375,8.681-1.128
				c2.321-0.751,3.483-2.109,3.483-4.071c0-0.981-0.426-1.798-1.276-2.452c-0.85-0.654-2.126-1.259-3.825-1.816
				c-1.702-0.554-3.875-1.093-6.524-1.618c-2.649-0.522-5.773-1.178-9.368-1.962c-6.737-1.437-11.659-3.842-14.764-7.21
				c-3.107-3.368-4.66-7.864-4.66-13.489c0-2.811,0.637-5.493,1.913-8.044c1.275-2.55,3.122-4.807,5.542-6.769
				c2.419-1.962,5.347-3.514,8.781-4.659C199.813,20.799,203.654,20.226,207.906,20.226"/>
			<path class="st2" d="M264.999,30.821c0,0.72-0.262,1.341-0.785,1.864c-0.524,0.524-1.145,0.785-1.864,0.785h-12.36
				c-0.721,0-1.342-0.261-1.864-0.785c-0.524-0.523-0.785-1.144-0.785-1.864v-9.908c0-0.719,0.261-1.34,0.785-1.864
				c0.522-0.523,1.143-0.784,1.864-0.784h12.36c0.719,0,1.34,0.261,1.864,0.784c0.523,0.524,0.785,1.145,0.785,1.864V30.821z
				 M264.999,87.228c0,0.72-0.262,1.341-0.785,1.863c-0.524,0.525-1.145,0.785-1.864,0.785h-12.36c-0.721,0-1.342-0.26-1.864-0.785
				c-0.524-0.522-0.785-1.143-0.785-1.863V41.514c0-0.719,0.261-1.34,0.785-1.864c0.522-0.523,1.143-0.785,1.864-0.785h12.36
				c0.719,0,1.34,0.262,1.864,0.785c0.523,0.524,0.785,1.145,0.785,1.864V87.228z"/>
			<path class="st2" d="M300.607,96.744c2.485,0,4.676-0.574,6.573-1.717c1.896-1.146,2.845-2.862,2.845-5.151v-6.867
				c-0.589,0.721-1.226,1.423-1.913,2.11c-0.687,0.686-1.537,1.308-2.551,1.864c-1.014,0.556-2.256,1.015-3.727,1.373
				c-1.472,0.36-3.287,0.539-5.445,0.539c-2.943,0-5.723-0.441-8.338-1.324c-2.617-0.883-4.905-2.239-6.867-4.071
				c-1.962-1.831-3.548-4.12-4.758-6.867c-1.211-2.747-1.881-5.984-2.011-9.712c-0.066-0.981-0.098-2.141-0.098-3.482
				c0-1.34,0.032-2.502,0.098-3.482c0.13-3.728,0.8-6.981,2.011-9.761c1.21-2.78,2.796-5.068,4.758-6.867
				c1.962-1.798,4.25-3.155,6.867-4.072c2.615-0.915,5.395-1.373,8.338-1.373c2.158,0,4.023,0.197,5.592,0.589
				c1.57,0.392,2.909,0.882,4.022,1.471c1.111,0.589,2.026,1.226,2.747,1.913c0.719,0.687,1.307,1.325,1.766,1.913v-2.256
				c0-0.719,0.26-1.34,0.784-1.864c0.523-0.523,1.144-0.785,1.864-0.785h11.379c0.72,0,1.34,0.262,1.865,0.785
				c0.522,0.524,0.784,1.145,0.784,1.864v47.774c0,3.662-0.671,6.882-2.011,9.663c-1.341,2.779-3.188,5.1-5.542,6.965
				c-2.355,1.864-5.167,3.252-8.437,4.168c-3.271,0.916-6.867,1.374-10.79,1.374c-5.102,0-9.271-0.637-12.508-1.913
				c-3.238-1.275-5.773-2.812-7.603-4.61c-1.832-1.8-3.107-3.679-3.826-5.642c-0.72-1.961-1.113-3.663-1.177-5.1
				c-0.066-0.721,0.179-1.341,0.736-1.864c0.555-0.524,1.192-0.785,1.913-0.785H290.7c1.373,0,2.386,0.653,3.041,1.962
				c0.456,0.849,1.16,1.602,2.109,2.256C296.797,96.416,298.383,96.744,300.607,96.744 M291.975,60.937
				c-0.132,0.981-0.196,1.783-0.196,2.403c0,0.623,0.064,1.423,0.196,2.405c0.196,2.29,0.996,4.185,2.403,5.689
				c1.406,1.505,3.547,2.256,6.426,2.256c2.681,0,4.724-0.735,6.131-2.207c1.405-1.472,2.271-3.154,2.6-5.052
				c0.326-2.026,0.326-4.087,0-6.181c-0.263-1.895-1.113-3.563-2.551-5.002c-1.439-1.438-3.499-2.159-6.18-2.159
				c-2.813,0-4.939,0.736-6.377,2.208C292.988,56.768,292.171,58.649,291.975,60.937"/>
			<path class="st2" d="M390.857,87.228c0,0.72-0.262,1.341-0.785,1.863c-0.524,0.525-1.145,0.785-1.863,0.785h-12.361
				c-0.72,0-1.341-0.26-1.864-0.785c-0.524-0.522-0.785-1.143-0.785-1.863V62.409c0-2.811-0.686-5.068-2.06-6.769
				c-1.373-1.7-3.531-2.551-6.474-2.551s-5.086,0.851-6.426,2.551c-1.341,1.701-2.01,3.958-2.01,6.769v24.819
				c0,0.72-0.263,1.341-0.786,1.863c-0.524,0.525-1.145,0.785-1.863,0.785h-12.361c-0.72,0-1.341-0.26-1.863-0.785
				c-0.525-0.522-0.785-1.143-0.785-1.863V41.514c0-0.719,0.26-1.34,0.785-1.864c0.522-0.523,1.143-0.785,1.863-0.785h11.87
				c0.719,0,1.34,0.262,1.864,0.785c0.523,0.524,0.785,1.145,0.785,1.864v2.256c0.523-0.653,1.177-1.339,1.962-2.06
				c0.784-0.719,1.732-1.357,2.845-1.913c1.111-0.555,2.403-1.013,3.875-1.373c1.471-0.359,3.188-0.54,5.15-0.54
				c3.139,0,6.016,0.442,8.633,1.324c2.614,0.883,4.855,2.241,6.719,4.072c1.864,1.831,3.319,4.154,4.366,6.965
				c1.045,2.812,1.569,6.148,1.569,10.005V87.228z"/>
			<path class="st2" d="M398.41,75.357c0-4.316,1.651-7.88,4.954-10.692c3.302-2.812,8.682-4.872,16.138-6.181l11.476-1.962
				c0-1.57-0.426-2.86-1.275-3.875c-0.85-1.013-2.322-1.52-4.414-1.52c-1.504,0-2.664,0.213-3.483,0.637
				c-0.818,0.427-1.422,0.802-1.814,1.128c-0.588,0.525-1.145,0.851-1.668,0.981c-0.524,0.132-1.145,0.197-1.863,0.197h-12.459
				c-0.655,0-1.194-0.197-1.619-0.589c-0.426-0.392-0.606-0.915-0.54-1.57c0.131-1.503,0.786-3.073,1.963-4.708
				c1.177-1.634,2.795-3.139,4.855-4.513c2.06-1.373,4.513-2.516,7.358-3.433c2.844-0.915,5.936-1.373,9.27-1.373
				c3.988,0,7.455,0.49,10.398,1.471c2.944,0.981,5.379,2.339,7.309,4.071c1.927,1.733,3.351,3.793,4.267,6.18
				c0.916,2.388,1.373,5.02,1.373,7.897v29.724c0,0.72-0.261,1.341-0.785,1.864c-0.523,0.524-1.144,0.785-1.863,0.785h-12.359
				c-0.721,0-1.342-0.261-1.866-0.785c-0.523-0.523-0.785-1.144-0.785-1.864V84.48c-1.568,1.962-3.515,3.517-5.836,4.66
				c-2.322,1.144-5.381,1.717-9.172,1.717c-2.813,0-5.315-0.392-7.505-1.178c-2.191-0.785-4.022-1.864-5.493-3.237
				c-1.472-1.373-2.6-3.007-3.384-4.905C398.802,79.641,398.41,77.581,398.41,75.357 M420.777,77.613
				c1.437,0,2.779-0.245,4.021-0.735c1.243-0.491,2.321-1.161,3.239-2.011c0.914-0.85,1.633-1.848,2.158-2.992
				c0.521-1.144,0.783-2.37,0.783-3.679l-9.023,1.373c-1.768,0.328-3.19,0.883-4.268,1.668c-1.08,0.785-1.619,1.8-1.619,3.041
				c0,1.243,0.408,2.109,1.227,2.6C418.111,77.368,419.271,77.613,420.777,77.613"/>
			<path class="st2" d="M477.183,87.228c0,0.72-0.263,1.341-0.785,1.863c-0.525,0.525-1.145,0.785-1.863,0.785h-12.361
				c-0.72,0-1.342-0.26-1.864-0.785c-0.524-0.522-0.785-1.143-0.785-1.863V22.875c0-0.719,0.261-1.339,0.785-1.864
				c0.522-0.522,1.144-0.784,1.864-0.784h12.361c0.718,0,1.338,0.262,1.863,0.784c0.522,0.525,0.785,1.145,0.785,1.864V87.228z"/>
			<path class="st2" d="M566.706,86.639c0.196,0.262,0.295,0.622,0.295,1.079c0,0.589-0.213,1.096-0.638,1.521
				c-0.427,0.425-0.932,0.637-1.52,0.637h-15.598c-0.917,0-1.668-0.196-2.257-0.589c-0.588-0.392-1.177-0.947-1.765-1.667
				l-18.54-23.347v22.955c0,0.72-0.263,1.341-0.786,1.863c-0.524,0.525-1.145,0.785-1.864,0.785h-12.85
				c-0.721,0-1.341-0.26-1.865-0.785c-0.523-0.522-0.784-1.143-0.784-1.863V23.856c0-0.719,0.261-1.34,0.784-1.864
				c0.524-0.522,1.144-0.785,1.865-0.785h12.85c0.719,0,1.34,0.263,1.864,0.785c0.523,0.524,0.786,1.145,0.786,1.864v20.699
				l17.264-21.189c0.327-0.393,0.751-0.85,1.276-1.374c0.522-0.522,1.405-0.785,2.648-0.785h15.304c0.589,0,1.094,0.213,1.52,0.638
				c0.425,0.426,0.638,0.932,0.638,1.521c0,0.458-0.098,0.818-0.294,1.079l-24.23,29.625L566.706,86.639z"/>
		</g>
		<g class="st1">
			<defs>
				<rect id="SVGID_5_" y="0" width="157.197" height="110.803"/>
			</defs>
			<clipPath id="SVGID_6_">
				<use xlink:href="#SVGID_5_"  style="overflow:visible;"/>
			</clipPath>
			<path class="st3" d="M0.607,75.284c2.957-1.872,10.882,6.629,21.713,14.362c7.039,5.026,18.661,8.853,28.952,8.143
				c16.757-1.156,23.71-4.386,37.85-11.763c11.088-5.785,22.27-13.948,31.82-19.767c5.646-3.441,12.449-6.567,20.107-8.932
				c9.948-3.071,16.148-0.501,16.148,0.494c0,1.708-11.752,7.285-20.688,13.323C125.019,78.908,119.63,82.675,117,84.401
				c-7.518,4.935-20.387,13.411-25.948,16.092c-8.695,4.192-18.633,8.229-30.899,9.782c-16.073,2.035-33.311-1.882-44.718-10.558
				C1.721,89.286-1.548,76.649,0.607,75.284"/>
			<path class="st3" d="M23.112,84.347c0,0,12.419-32.107,14.23-36.798c5.747-14.886,8.213-22.798,17.158-26.123
				c4.664-1.734,13.022-0.163,16.008,0.066c4.411,0.339,5.467-0.955,6.464-3.449c2.122-5.303,3.954-9.546,3.664-10.414
				c-0.073-0.219-1.474-0.592-1.639-1.253c-0.096-0.386,2.626-6.609,3.278-6.963c0.676-0.365,23.721,8.409,23.914,9.374
				c0.179,0.896-1.929,6.653-2.797,7.135c-0.678,0.377-1.84-0.767-2.7-0.289c-0.607,0.337-1.472,2.853-4.242,9.931
				c-0.868,2.218-0.169,4.714,2.218,6.653c3.085,2.507,9.103,6.307,11.956,11.282c3.761,6.557,1.929,10.501-3.568,24.202
				l-0.385,1.061c0,0-9.427,7.917-26.617,16.06c-10.066,4.768-19.451,7.009-26.897,7.863c-1.202,0.138-4.739-2.688-7.6-2.967
				c-2.857-0.28-10.651,0.869-11.309,0.638C28.789,88.433,23.112,84.347,23.112,84.347"/>
			<path class="st4" d="M74.562,38.485c0,0-12.623-6.709-17.562-2.973c-4.817,3.645-22.751,54.866-22.751,54.866
				s2.231,0.89,6.573,1.863c2.821,0.632,5.248,0.791,8.143,0.746c2.306-0.036,4.192-0.279,4.192-0.279L74.562,38.485z"/>
		</g>
	</g>
</g>
<g>
</g>
<g>
</g>
<g>
</g>
<g>
</g>
<g>
</g>
<g>
</g>
<g>
</g>
<g>
</g>
<g>
</g>
<g>
</g>
<g>
</g>
<g>
</g>
<g>
</g>
<g>
</g>
<g>
</g>
</svg>
